#!OML:ASF E:\Steps\Project 1\Capture day 1\Session 2\Subject.ASF
:FULLY-SPECIFIED
:DEGREES
316
root -1.01884 17.9654 20.7103 -153.707 -9.33794 177.554
lowerback -28.1786 0.447344 -7.59282
upperback -2.0168 2.47292 -0.825115
thorax 13.1132 0.439743 4.31566
lowerneck -3.19522 0.602644 1.76572
upperneck 18.4733 -0.552471 1.37691
head 6.1192 -0.431382 0.065629
rclavicle -2.05245e-014 -2.25621e-014
rhumerus -38.7049 -23.689 -75.3392
rradius 20.9465
rwrist 6.53909
rhand -10.9539 -60.8283
rfingers 7.12502
rthumb 15.0649 810.26
lclavicle -2.05245e-014 -2.25621e-014
lhumerus -26.4805 -2.16824 86.4022
lradius 19.0002
lwrist -2.44964
lhand -21.5559 -11.3218
lfingers 7.12502
lthumb 4.8376 18.6029
rfemur -22.2976 3.10965 20.3498
rtibia 5.65392
rfoot -18.7572 -4.2345
rtoes -8.35569
lfemur -24.433 -8.70876 -22.3916
ltibia 7.22243
lfoot -5.48748 -7.08767
ltoes -31.823
317
root -1.0203 17.9635 20.7153 -153.784 -9.08498 177.443
lowerback -28.2638 0.370235 -7.75891
upperback -1.55543 2.45104 -0.714256
thorax 12.9157 0.438567 4.29031
lowerneck -3.20036 0.562732 1.59082
upperneck 18.6944 -0.657822 1.55556
head 6.19068 -0.490493 0.143326
rclavicle 2.44008e-014 1.86858e-014
rhumerus -38.4876 -23.8057 -75.2787
rradius 20.5111
rwrist 7.29408
rhand -12.6632 -59.9633
rfingers 7.12502
rthumb 13.4178 630.489
lclavicle 2.44008e-014 1.86858e-014
lhumerus -26.4891 -1.89955 86.3621
lradius 18.75
lwrist -2.5284
lhand -21.4895 -11.1884
lfingers 7.12502
lthumb 4.90173 18.7349
rfemur -22.2921 2.89455 20.2487
rtibia 5.80401
rfoot -18.7985 -3.93377
rtoes -8.74166
lfemur -24.2835 -8.58469 -22.6249
ltibia 7.15022
lfoot -5.47687 -7.01738
ltoes -32.0713
318
root -1.0225 17.9636 20.7212 -153.888 -8.79681 177.395
lowerback -28.2616 0.315726 -7.83236
upperback -1.46588 2.41807 -0.710336
thorax 13.0173 0.416413 4.32536
lowerneck -3.17651 0.539551 1.44193
upperneck 18.9056 -0.741466 1.71714
head 6.25434 -0.539582 0.2127
rclavicle 4.94725e-014 -1.799e-014
rhumerus -38.2742 -23.9433 -75.2055
rradius 19.9641
rwrist 8.309
rhand -13.5639 -59.1897
rfingers 7.12502
rthumb 12.5496 631.207
lclavicle 4.94725e-014 -1.799e-014
lhumerus -26.5276 -1.62588 86.276
lradius 18.5744
lwrist -2.5601
lhand -21.1961 -11.3488
lfingers 7.12502
lthumb 5.18504 18.5678
rfemur -22.1871 2.92678 20.1543
rtibia 5.79086
rfoot -18.7509 -3.72086
rtoes -8.60693
lfemur -24.1237 -8.26971 -22.837
ltibia 7.08553
lfoot -5.53234 -7.09957
ltoes -32.5495
319
root -1.02399 17.9641 20.7278 -153.925 -8.47311 177.421
lowerback -28.3106 0.27229 -7.83294
upperback -1.40213 2.37405 -0.704127
thorax 13.1182 0.391814 4.31937
lowerneck -3.1622 0.517873 1.25562
upperneck 19.133 -0.824989 1.88898
head 6.32519 -0.59113 0.291558
rclavicle 3.01656e-014 -3.69739e-014
rhumerus -38.2784 -24.7249 -74.7316
rradius 19.4407
rwrist 10.3557
rhand -13.7085 -58.5423
rfingers 7.12502
rthumb 12.4102 631.846
lclavicle 3.01656e-014 -3.69739e-014
lhumerus -26.6253 -1.23344 86.1424
lradius 18.4673
lwrist -2.81912
lhand -21.1282 -11.4934
lfingers 7.12502
lthumb 5.25061 18.4216
rfemur -22.1733 3.03864 20.1273
rtibia 5.74371
rfoot -18.6276 -3.59589
rtoes -9.17187
lfemur -24.0836 -7.99523 -22.9239
ltibia 7.07209
lfoot -5.65035 -7.05796
ltoes -32.9811
320
root -1.02373 17.9637 20.7358 -153.955 -8.16609 177.455
lowerback -28.3034 0.207849 -7.80973
upperback -1.37467 2.28315 -0.688528
thorax 13.1581 0.349882 4.29158
lowerneck -3.14316 0.4999 0.956372
upperneck 19.3692 -0.902154 2.09731
head 6.39842 -0.645736 0.401428
rclavicle -6.06542e-014 3.02153e-014
rhumerus -38.3222 -25.3239 -74.3548
rradius 19.1645
rwrist 12.058
rhand -13.5873 -58.682
rfingers 7.12502
rthumb 12.527 631.713
lclavicle -6.06542e-014 3.02153e-014
lhumerus -26.7825 -0.795346 86.0346
lradius 18.3199
lwrist -3.18879
lhand -21.4609 -11.1616
lfingers 7.12502
lthumb 4.92931 18.761
rfemur -22.2861 3.04781 20.1595
rtibia 5.82949
rfoot -18.5142 -3.57819
rtoes -11.3705
lfemur -24.0881 -7.84655 -22.9447
ltibia 7.09107
lfoot -5.72172 -6.90073
ltoes -33.1683
321
root -1.02393 17.9626 20.7429 -154 -7.94119 177.506
lowerback -28.2982 0.135692 -7.75379
upperback -1.3366 2.17244 -0.653638
thorax 13.2146 0.300562 4.26039
lowerneck -3.10047 0.504244 0.711977
upperneck 19.5614 -0.948169 2.29677
head 6.4536 -0.681648 0.501706
rclavicle 3.70982e-014 8.15017e-015
rhumerus -38.18 -25.3973 -74.3098
rradius 18.8908
rwrist 12.8289
rhand -13.7239 -59.1877
rfingers 7.12502
rthumb 12.3953 631.2
lclavicle 3.70982e-014 8.15017e-015
lhumerus -26.9351 -0.658039 86.0075
lradius 18.1629
lwrist -3.26027
lhand -21.6754 -10.7885
lfingers 7.12502
lthumb 4.72216 19.1389
rfemur -22.3666 3.06346 20.2097
rtibia 5.9213
rfoot -18.4714 -3.52267
rtoes -12.6205
lfemur -24.071 -7.78447 -22.9192
ltibia 7.10778
lfoot -5.78705 -6.73378
ltoes -33.5619
322
root -1.02151 17.9636 20.747 -154.086 -7.70114 177.503
lowerback -28.2824 0.0507373 -7.84023
upperback -1.25007 2.09894 -0.619123
thorax 13.3106 0.259243 4.32045
lowerneck -3.03577 0.51164 0.574964
upperneck 19.7435 -0.996061 2.46607
head 6.50187 -0.713713 0.574408
rclavicle 8.52289e-015 1.78906e-015
rhumerus -38.0537 -25.8833 -74.0475
rradius 18.5068
rwrist 13.8199
rhand -13.8654 -59.2037
rfingers 7.12502
rthumb 12.2589 631.176
lclavicle 8.52289e-015 1.78906e-015
lhumerus -27.0229 -0.444861 85.914
lradius 17.977
lwrist -3.75454
lhand -21.5519 -10.8689
lfingers 7.12502
lthumb 4.84148 19.0558
rfemur -22.3159 3.18631 20.1765
rtibia 5.9494
rfoot -18.456 -3.55348
rtoes -13.4767
lfemur -23.9281 -7.70662 -22.9567
ltibia 7.03682
lfoot -5.82233 -6.59628
ltoes -34.1839
323
root -1.01522 17.9669 20.7504 -154.264 -7.43652 177.441
lowerback -28.1217 -0.0555937 -8.07888
upperback -1.15928 2.03631 -0.578418
thorax 13.3359 0.218655 4.47182
lowerneck -2.95872 0.504901 0.411815
upperneck 19.9521 -1.06849 2.6414
head 6.55699 -0.760777 0.651825
rclavicle -2.42766e-014 1.33186e-014
rhumerus -38.0943 -26.8162 -73.5015
rradius 18.0966
rwrist 14.9342
rhand -14.07 -58.5399
rfingers 7.12502
rthumb 12.0616 631.828
lclavicle -2.42766e-014 1.33186e-014
lhumerus -27.1203 0.0722442 85.7386
lradius 17.8173
lwrist -4.71021
lhand -21.3088 -11.1109
lfingers 7.12502
lthumb 5.07622 18.8083
rfemur -22.0871 3.29377 20.0959
rtibia 5.83761
rfoot -18.3811 -3.58258
rtoes -14.5084
lfemur -23.6535 -7.51512 -23.0866
ltibia 6.91865
lfoot -5.76977 -6.57784
ltoes -34.1566
324
root -1.01588 17.9649 20.7596 -154.302 -7.21251 177.465
lowerback -28.065 -0.141131 -8.11486
upperback -1.11779 1.93142 -0.517034
thorax 13.3674 0.167908 4.5207
lowerneck -2.88537 0.511133 0.181924
upperneck 20.1552 -1.12097 2.8376
head 6.61109 -0.801562 0.748621
rclavicle -2.52208e-014 -1.43125e-014
rhumerus -38.1768 -27.5914 -72.967
rradius 17.7859
rwrist 15.6319
rhand -14.3608 -57.4204
rfingers 7.12502
rthumb 11.7812 632.931
lclavicle -2.52208e-014 -1.43125e-014
lhumerus -27.2412 0.677605 85.611
lradius 17.6933
lwrist -5.40883
lhand -21.1987 -11.3779
lfingers 7.12502
lthumb 5.18254 18.5387
rfemur -21.9986 3.25 20.0882
rtibia 5.63418
rfoot -18.232 -3.22005
rtoes -13.6683
lfemur -23.6336 -7.3456 -23.1339
ltibia 6.91629
lfoot -5.7047 -6.48588
ltoes -33.7878
325
root -1.02344 17.9601 20.7703 -154.227 -7.03362 177.501
lowerback -28.1219 -0.236758 -8.03525
upperback -1.10539 1.77868 -0.460053
thorax 13.4298 0.0988506 4.48484
lowerneck -2.79703 0.553953 -0.0724304
upperneck 20.3483 -1.11673 3.01296
head 6.65845 -0.818847 0.846812
rclavicle 2.98177e-016 3.77691e-015
rhumerus -38.2289 -28.0932 -72.5163
rradius 17.5397
rwrist 16.4981
rhand -13.1417 -57.6725
rfingers 7.12502
rthumb 12.9566 632.75
lclavicle 2.98177e-016 3.77691e-015
lhumerus -27.4346 1.18999 85.5227
lradius 17.6169
lwrist -5.83194
lhand -21.2446 -11.7148
lfingers 7.12502
lthumb 5.13815 18.2029
rfemur -22.0065 3.25705 20.0613
rtibia 5.39964
rfoot -18.0832 -2.92851
rtoes -12.7329
lfemur -23.7575 -7.24723 -23.191
ltibia 6.95868
lfoot -5.65259 -6.36968
ltoes -33.6263
326
root -1.02759 17.9607 20.7783 -154.228 -6.79328 177.49
lowerback -28.0914 -0.316451 -8.05751
upperback -1.07062 1.68277 -0.449093
thorax 13.4668 0.0528468 4.4744
lowerneck -2.75037 0.593324 -0.249782
upperneck 20.5397 -1.11943 3.1711
head 6.71264 -0.833761 0.926233
rclavicle 1.52816e-014 1.09332e-014
rhumerus -38.1621 -28.2062 -72.4603
rradius 17.4188
rwrist 16.8847
rhand -10.4036 -60.0292
rfingers 7.12502
rthumb 15.595 630.58
lclavicle 1.52816e-014 1.09332e-014
lhumerus -27.6259 1.50776 85.4072
lradius 17.5913
lwrist -6.19892
lhand -21.2906 -11.8824
lfingers 7.12502
lthumb 5.09378 18.0364
rfemur -21.9867 3.45014 19.9737
rtibia 5.26943
rfoot -17.9909 -2.96002
rtoes -13.1072
lfemur -23.7485 -7.1672 -23.2908
ltibia 6.94068
lfoot -5.66796 -6.28471
ltoes -33.4308
